<svg width="24" height="20" viewBox="0 0 24 20" fill="none" xmlns="http://www.w3.org/2000/svg">
<path fill-rule="evenodd" clip-rule="evenodd" d="M3.42633 3.04658H20.4596C21.7974 3.04658 22.8859 4.16692 22.8859 5.54385V15.5959C22.8859 16.9728 21.7974 18.0932 20.4596 18.0932H3.42633C2.08852 18.0932 1 16.9728 1 15.5959V5.54385C1 4.16692 2.08852 3.04658 3.42633 3.04658ZM20.4596 16.7733C21.0903 16.7733 21.6035 16.245 21.6035 15.5959V5.54385C21.6035 4.89474 21.0903 4.36645 20.4596 4.36645H3.42633C2.79566 4.36645 2.28238 4.89474 2.28238 5.54385V15.5959C2.28238 16.245 2.79566 16.7733 3.42633 16.7733H20.4596Z" fill="#4E768F"/>
<path d="M20.4596 2.84658H3.42633V3.24658H20.4596V2.84658ZM23.0859 5.54385C23.0859 4.06194 21.9133 2.84658 20.4596 2.84658V3.24658C21.6816 3.24658 22.6859 4.27191 22.6859 5.54385H23.0859ZM23.0859 15.5959V5.54385H22.6859V15.5959H23.0859ZM20.4596 18.2931C21.9133 18.2931 23.0859 17.0778 23.0859 15.5959H22.6859C22.6859 16.8678 21.6816 17.8932 20.4596 17.8932V18.2931ZM3.42633 18.2931H20.4596V17.8932H3.42633V18.2931ZM0.8 15.5959C0.8 17.0778 1.97267 18.2931 3.42633 18.2931V17.8932C2.20437 17.8932 1.2 16.8678 1.2 15.5959H0.8ZM0.8 5.54385V15.5959H1.2V5.54385H0.8ZM3.42633 2.84658C1.97267 2.84658 0.8 4.06194 0.8 5.54385H1.2C1.2 4.27191 2.20437 3.24658 3.42633 3.24658V2.84658ZM21.4035 15.5959C21.4035 16.14 20.9744 16.5733 20.4596 16.5733V16.9733C21.2061 16.9733 21.8035 16.35 21.8035 15.5959H21.4035ZM21.4035 5.54385V15.5959H21.8035V5.54385H21.4035ZM20.4596 4.56645C20.9744 4.56645 21.4035 4.99973 21.4035 5.54385H21.8035C21.8035 4.78976 21.2061 4.16645 20.4596 4.16645V4.56645ZM3.42633 4.56645H20.4596V4.16645H3.42633V4.56645ZM2.48238 5.54385C2.48238 4.99973 2.91152 4.56645 3.42633 4.56645V4.16645C2.67981 4.16645 2.08238 4.78976 2.08238 5.54385H2.48238ZM2.48238 15.5959V5.54385H2.08238V15.5959H2.48238ZM3.42633 16.5733C2.91152 16.5733 2.48238 16.14 2.48238 15.5959H2.08238C2.08238 16.35 2.67981 16.9733 3.42633 16.9733V16.5733ZM20.4596 16.5733H3.42633V16.9733H20.4596V16.5733Z" fill="#4E768F"/>
<path fill-rule="evenodd" clip-rule="evenodd" d="M9.21455 11.0253C9.46736 10.6694 9.61663 10.2308 9.61663 9.75714V8.37437C9.61663 7.18682 8.67806 6.22081 7.52425 6.22081C6.37061 6.22081 5.43187 7.18682 5.43187 8.37437V9.75714C5.43187 10.231 5.58131 10.6694 5.83395 11.0253C5.1218 11.4175 4.54589 12.0558 4.22263 12.8601C4.03812 13.3191 4.08855 13.8402 4.35721 14.254C4.62788 14.6704 5.07988 14.9191 5.56679 14.9191H9.48188C9.96862 14.9191 10.4208 14.6704 10.6913 14.254C10.9601 13.8402 11.0104 13.3191 10.826 12.8601C10.5028 12.0556 9.92671 11.4173 9.21455 11.0253ZM6.71427 9.75714V8.37437C6.71427 7.91465 7.07761 7.54051 7.52427 7.54051C7.97093 7.54051 8.33427 7.91465 8.33427 8.37437V9.75714C8.33427 10.2169 7.97093 10.5908 7.52427 10.5908C7.07761 10.5908 6.71427 10.2169 6.71427 9.75714ZM9.4819 13.5992C9.56205 13.5992 9.60613 13.5497 9.62516 13.5203C9.64737 13.4863 9.66791 13.4317 9.64103 13.3646C9.28603 12.4814 8.45533 11.9107 7.52443 11.9107C6.59337 11.9107 5.7625 12.4814 5.40767 13.3646C5.38062 13.4317 5.40133 13.4863 5.42337 13.5203C5.44257 13.5497 5.48665 13.5992 5.5668 13.5992H9.4819Z" fill="#4E768F"/>
<path d="M9.21455 11.0253L9.13303 10.9674L9.06808 11.0588L9.16633 11.1129L9.21455 11.0253ZM5.83395 11.0253L5.88219 11.1129L5.98038 11.0588L5.91549 10.9674L5.83395 11.0253ZM4.22263 12.8601L4.31541 12.8973L4.31541 12.8973L4.22263 12.8601ZM4.35721 14.254L4.27334 14.3085L4.27337 14.3085L4.35721 14.254ZM10.6913 14.254L10.6074 14.1995L10.6074 14.1995L10.6913 14.254ZM10.826 12.8601L10.9188 12.8228L10.9188 12.8228L10.826 12.8601ZM9.62516 13.5203L9.54142 13.4657L9.54123 13.466L9.62516 13.5203ZM9.64103 13.3646L9.73384 13.3274L9.73381 13.3273L9.64103 13.3646ZM5.40767 13.3646L5.50041 13.4021L5.50046 13.4019L5.40767 13.3646ZM5.42337 13.5203L5.33944 13.5747L5.33965 13.575L5.42337 13.5203ZM9.51663 9.75714C9.51663 10.2095 9.37411 10.628 9.13303 10.9674L9.29608 11.0832C9.5606 10.7108 9.71663 10.252 9.71663 9.75714H9.51663ZM9.51663 8.37437V9.75714H9.71663V8.37437H9.51663ZM7.52425 6.32081C8.62013 6.32081 9.51663 7.23932 9.51663 8.37437H9.71663C9.71663 7.13433 8.73598 6.12081 7.52425 6.12081V6.32081ZM5.53187 8.37437C5.53187 7.23932 6.42853 6.32081 7.52425 6.32081V6.12081C6.31269 6.12081 5.33187 7.13433 5.33187 8.37437H5.53187ZM5.53187 9.75714V8.37437H5.33187V9.75714H5.53187ZM5.91549 10.9674C5.67454 10.6279 5.53187 10.2097 5.53187 9.75714H5.33187C5.33187 10.2522 5.48808 10.7108 5.7524 11.0832L5.91549 10.9674ZM4.31541 12.8973C4.63011 12.1144 5.19032 11.4939 5.88219 11.1129L5.78571 10.9377C5.05327 11.341 4.46168 11.9971 4.12984 12.8228L4.31541 12.8973ZM4.44108 14.1995C4.19019 13.8131 4.14302 13.3262 4.31541 12.8973L4.12984 12.8228C3.93322 13.3119 3.9869 13.8672 4.27334 14.3085L4.44108 14.1995ZM5.56679 14.8191C5.11457 14.8191 4.69374 14.5882 4.44105 14.1995L4.27337 14.3085C4.56202 14.7526 5.04519 15.0191 5.56679 15.0191V14.8191ZM9.48188 14.8191H5.56679V15.0191H9.48188V14.8191ZM10.6074 14.1995C10.3549 14.5882 9.93394 14.8191 9.48188 14.8191V15.0191C10.0033 15.0191 10.4867 14.7526 10.7752 14.3085L10.6074 14.1995ZM10.7332 12.8973C10.9055 13.3263 10.8585 13.8131 10.6074 14.1995L10.7752 14.3085C11.0618 13.8672 11.1153 13.3119 10.9188 12.8228L10.7332 12.8973ZM9.16633 11.1129C9.85819 11.4937 10.4186 12.1142 10.7333 12.8973L10.9188 12.8228C10.587 11.997 9.99522 11.3409 9.26278 10.9377L9.16633 11.1129ZM6.61427 8.37437V9.75714H6.81427V8.37437H6.61427ZM7.52427 7.44051C7.01965 7.44051 6.61427 7.86218 6.61427 8.37437H6.81427C6.81427 7.96711 7.13556 7.64051 7.52427 7.64051V7.44051ZM8.43427 8.37437C8.43427 7.86218 8.02888 7.44051 7.52427 7.44051V7.64051C7.91298 7.64051 8.23427 7.96711 8.23427 8.37437H8.43427ZM8.43427 9.75714V8.37437H8.23427V9.75714H8.43427ZM7.52427 10.6908C8.02886 10.6908 8.43427 10.2694 8.43427 9.75714H8.23427C8.23427 10.1644 7.913 10.4908 7.52427 10.4908V10.6908ZM6.61427 9.75714C6.61427 10.2694 7.01968 10.6908 7.52427 10.6908V10.4908C7.13553 10.4908 6.81427 10.1644 6.81427 9.75714H6.61427ZM9.54123 13.466C9.53658 13.4731 9.5294 13.4818 9.51992 13.4883C9.51154 13.494 9.49993 13.4992 9.4819 13.4992V13.6992C9.61004 13.6992 9.68089 13.6182 9.70909 13.5747L9.54123 13.466ZM9.54821 13.4019C9.55448 13.4175 9.55448 13.429 9.55297 13.4378C9.55128 13.4475 9.54705 13.4571 9.54142 13.4657L9.70891 13.575C9.74253 13.5235 9.77666 13.4342 9.73384 13.3274L9.54821 13.4019ZM7.52443 12.0107C8.41328 12.0107 9.20802 12.5555 9.54824 13.4019L9.73381 13.3273C9.36405 12.4074 8.49737 11.8107 7.52443 11.8107V12.0107ZM5.50046 13.4019C5.84052 12.5555 6.6354 12.0107 7.52443 12.0107V11.8107C6.55134 11.8107 5.68448 12.4074 5.31488 13.3274L5.50046 13.4019ZM5.5073 13.466C5.50158 13.4571 5.49733 13.4476 5.49565 13.4378C5.49413 13.4291 5.49414 13.4176 5.50041 13.4021L5.31494 13.3272C5.27175 13.4342 5.30632 13.5236 5.33944 13.5747L5.5073 13.466ZM5.5668 13.4992C5.54877 13.4992 5.53715 13.4941 5.52872 13.4883C5.5192 13.4818 5.51192 13.473 5.50708 13.4656L5.33965 13.575C5.36786 13.6182 5.43863 13.6992 5.5668 13.6992V13.4992ZM9.4819 13.4992H5.5668V13.6992H9.4819V13.4992Z" fill="#4E768F"/>
<path d="M19.2536 7.52762H13.7171C13.3631 7.52762 13.0759 7.82305 13.0759 8.18756C13.0759 8.5519 13.3631 8.8475 13.7171 8.8475H19.2536C19.6077 8.8475 19.8947 8.5519 19.8947 8.18756C19.8947 7.82305 19.6077 7.52762 19.2536 7.52762Z" fill="#4E768F" stroke="#4E768F" stroke-width="0.2"/>
<path d="M13.7171 11.2616H17.9712C18.3253 11.2616 18.6124 10.9662 18.6124 10.6017C18.6124 10.2371 18.3253 9.94172 17.9712 9.94172H13.7171C13.3631 9.94172 13.0759 10.2371 13.0759 10.6017C13.0759 10.9662 13.3631 11.2616 13.7171 11.2616Z" fill="#4E768F" stroke="#4E768F" stroke-width="0.2"/>
<path d="M19.2536 12.2922H13.7171C13.3631 12.2922 13.0759 12.5878 13.0759 12.9522C13.0759 13.3167 13.3631 13.6121 13.7171 13.6121H19.2536C19.6077 13.6121 19.8947 13.3167 19.8947 12.9522C19.8947 12.5878 19.6077 12.2922 19.2536 12.2922Z" fill="#4E768F" stroke="#4E768F" stroke-width="0.2"/>
</svg>
