<svg xmlns="http://www.w3.org/2000/svg" width="8" height="8" viewBox="0 0 8 8">
    <g fill="#FFF" fill-rule="nonzero" stroke="#FFF" stroke-width=".4">
        <path d="M7.3 6.33l-.559-.559-1.335-1.335-1.623-1.623L2.38 1.41C2.15 1.18 1.93.949 1.697.727L1.688.718C1.435.465.969.444.72.718c-.25.274-.271.696 0 .968l.56.559a560237510.9 560237510.9 0 0 0 2.957 2.958l1.404 1.403c.228.229.45.461.682.683l.01.009c.253.253.718.274.967 0 .254-.274.274-.694 0-.968z"/>
        <path d="M6.333.72l-.56.56-1.335 1.335-1.623 1.622-1.403 1.404c-.228.228-.461.45-.683.682l-.009.01c-.253.253-.274.718 0 .967.274.251.696.272.968 0l.56-.559 1.334-1.335 1.623-1.623L6.61 2.38c.228-.229.46-.45.682-.683l.01-.009c.253-.253.273-.719 0-.968-.275-.25-.695-.271-.968 0z"/>
    </g>
</svg>
