<svg xmlns="http://www.w3.org/2000/svg" width="118" height="102" viewBox="0 0 118 102">
    <path fill="#374654" fill-rule="nonzero" stroke="#374654" stroke-width="3" d="M59.114 100.115c-.292 0-.582-.063-.854-.191L3.28 73.986a1.983 1.983 0 0 1-.949-2.644 1.995 1.995 0 0 1 2.656-.944l54.127 25.534 54.133-25.534a1.995 1.995 0 0 1 2.654.945c.47.99.047 2.175-.949 2.643L59.967 99.924c-.27.128-.56.191-.853.191zm0-22.141c-.292 0-.582-.064-.853-.192L3.281 51.85a1.981 1.981 0 0 1-.95-2.643 1.993 1.993 0 0 1 2.654-.945l54.128 25.53 54.133-25.53a1.995 1.995 0 0 1 2.654.945c.47.99.046 2.174-.95 2.643L59.968 77.783a2 2 0 0 1-.853.19zm0-22.6c-.287 0-.572-.062-.838-.185L4.928 30.558a1.986 1.986 0 0 1-1.155-1.801c0-.773.45-1.476 1.155-1.802l53.35-24.63a1.997 1.997 0 0 1 1.676 0l53.353 24.63a1.986 1.986 0 0 1 1.155 1.802c0 .773-.45 1.475-1.155 1.801L59.954 55.189a2.003 2.003 0 0 1-.84.184zM10.506 28.756L59.114 51.2l48.614-22.443L59.114 6.313 10.506 28.757z"/>
</svg>
