<svg xmlns="http://www.w3.org/2000/svg" xmlns:xlink="http://www.w3.org/1999/xlink" width="222" height="35" viewBox="0 0 222 35">
    <defs>
        <path id="a" d="M4.151 2.746h1.05c1.205 0 2.372.117 2.372 1.344 0 1.137-1.226 1.423-2.41 1.423H4.15V2.746zm0 5.187H5.26c1.244 0 2.663.135 2.663 1.6 0 1.359-1.38 1.553-2.703 1.553H4.151V7.933zM.536 13.62H6.25c2.43 0 5.289-.673 5.289-3.883 0-1.634-.935-2.591-2.74-2.956 1.514-.54 2.389-1.48 2.389-3.171 0-2.307-1.885-3.403-4.413-3.403H.536v13.413zm3.615 3.8h1.05c1.205 0 2.372.115 2.372 1.345 0 1.13-1.226 1.422-2.41 1.422H4.15V17.42zm0 5.188H5.26c1.244 0 2.663.133 2.663 1.593 0 1.366-1.38 1.558-2.703 1.558H4.151v-3.151zM.536 28.296H6.25c2.43 0 5.289-.67 5.289-3.882 0-1.633-.935-2.593-2.74-2.96 1.514-.536 2.389-1.48 2.389-3.168 0-2.309-1.885-3.405-4.413-3.405H.536v13.415zm12.214 0h3.252l-.073-10.3 3.075 10.3h3.055l3.18-10.3-.02 10.3h3.253V14.88h-5.039L20.664 23.8l-2.68-8.919H12.75v13.415z"/>
        <path id="c" d="M0 .988V.556v.432z"/>
        <path id="e" d="M20.8 7.236a10.26 10.26 0 0 0-5.6 1.66l-5.501 3.607V0L0 8.294v15.69c0 4.656 2.995 8.612 7.147 10.007L9 34.575c-3.795-1.918-6.391-5.792-6.391-10.28 0-6.367 5.261-11.537 11.75-11.537 6.055 0 11.035 4.51 11.672 10.294l-6.695-.01c-.58-2.263-2.617-3.937-5.032-3.937-2.873 0-5.204 2.36-5.204 5.269 0 2.915 2.33 5.273 5.204 5.273 2.652 0 4.845-2.007 5.158-4.613l6.62-.007a11.38 11.38 0 0 1-2.348 6.228s4.1-4.865 5.504-7.067c1.269-2 1.966-4.06 1.966-6.408 0-5.826-4.654-10.544-10.403-10.544z"/>
        <path id="g" d="M23.234 22.006c-6.047-1.19-10.536-4.442-10.57-4.492-.037-.054-.538-.293-.462-.632.234-.993 1.644-3.034 1.792-3.312.145-.286.037-.79-.294-.854-2.193-.452-2.257-.53-2.257-.53-.618-.039-.657.268-.657.268l.039 1.579c-.404 1.39-.654 1.3-.654 1.3s-1.777-1.347-1.9-1.456c-.121-.113-1.496-.234-1.496-.234s.138-.242.271-.354c2.032-1.767 2.563-3.366 2.58-3.412.007-.057-.024-.959-.024-.959l-.699-.921 1.803-.499s1.047-.317 1.254-.085c.35.404.476 2.238.476 2.238.623 1.35 2.592 1.88 2.723 1.912.126.043 3.488 1.034 3.488 1.034.842-.673.711-1.58.711-1.58.204-.502-1.638-1.284-2.335-1.45-2.537-.594-2.966-1.047-3.655-1.56-.693-.521-.158-1.042-.158-1.042s1.334-.403 1.71-.48c.532-.111 3.6-.255 3.6-.255.856.07.856-.266.856-.266l-.252-2.077c.096-.263-.138-.79-.348-.726-3.748 1.118-6.119 1.315-6.119 1.315-.32.048-.344-1.636-.237-2.389.128-.893-.682-1.44-1.214-1.468-.534-.026-1.391-.57-1.391-.57-2.112 2.918.683 3.59.874 3.67.75.298.604.387.836.684.3.375-.554.653-1.092.802C5.468 6.576 3.681 6.62 3.145 6.597c-1.113-.058-.747 1.036-.747 1.036s.387.481.605.986c.382.892 2.254.237 2.627.132 2.079-.58 2.067-.397 2.067-.397.342.397-.276 1.491-.276 1.491-1.35 1.819-3.248 2.884-3.637 3.025-.38.149-.527.04-.527.04-.196.5.374 1.288.603 1.316.162.018 1.9-.04 1.9-.04l.24-.089c.2 0 .14.294.14.294.116 1.3.891 1.63 1.332 1.747 1.466.367 1.865 1.112 1.865 1.112C6.071 21.766.081 21.32.081 21.32c.185.184.694.486 1.7.686 3.306.668 6.345-1.129 6.585-1.336.24-.211 2.042-1.605 2.293-1.877.427-.48.686-.22.686-.22s2.92 2.499 3.814 3.27c5.112 4.382 8.232.427 8.232.427l-.157-.264z"/>
        <path id="i" d="M4.478 4.584c.585-.981-.287-2.118-.827-2.442C1.765.996 1.542.388 1.542.388.461.905.452 2.094.747 2.79c.98 2.327 3.537 2.123 3.731 1.794z"/>
        <path id="k" d="M17.502 9.56c-.019.165-.05 7.785-.05 7.785-.077.209-1.586.283-1.586.283-.126.644 1.549 2.62 1.549 2.62s-.019.142-.577.154c-2.524.054-3.05-.327-3.05-.327.17-.013.983-.976.983-.976v-2.377c1.361-.49 1.805-1.185 1.805-1.185.222-1.296-.222-1.378-.222-1.378l-1.112.205c-.524.042-.443-.26-.443-.26l-.028-.965c0-.112 1.898-.958 1.898-.958s.19-.512.078-1.263c-.114-.754-1.94-.097-1.94-.097l-.112-1.283s.902-.15 1.17-.298c.286-.156 1.4-.322 1.4-.322.26.03.26.47.237.642zm-4.58 10.367c-1.708-.115-2.15-.431-2.15-.431.028-.118.157-2.697.157-2.697 2.044-.092 2.044.096 2.044.096.173 1.561-.05 3.032-.05 3.032zm-2.363-7.915s-.481-1.302-.114-1.509c0 0 .583.15 2.177-.434 0 0 .237.525.168 1.129-.03.265-.238.223-.238.223s-1.153.417-1.491.72c-.19.178-.388.431-.502-.13zm1.938 2.849s-1.524.24-1.627.165c0 0-.032-1.523-.032-1.675 0 0 .488.24.794.264.316.014.6.093 1.05-.024 0 0 .2-.016.2.494 0 .685.07.725-.385.776zm6.454 5.201s-.24-.15-.086-.49c.145-.34.312-1.168.255-1.322 0 0-.445-5.255-.061-7.747.163-1.03.32-2.755.473-2.868 0 0-.28-.922-2.527-.808-.76.038-1.684.69-2.234.298-.37-.265-.288-.51-.012-.809.28-.302 3.38-3.66 4.04-3.789 0 0 .733-.98-.871-1.907-.937-.546-1.172-.887-2.375-.09-.69.456-2.694 2.26-3.982 2.481-.668.124-.77-.466-.837-.523l-.26-.192S9.334 3.354 9.45 4.86c.057.764 2.036.089 2.604-.377.408-.338 2.983-1.919 2.46-.508l-1.593 1.81-1.264.346s-.685.278-.112.883c0 0 .988.659.892.941 0 0-.15.394-1.48 1.04-.292.134-.636.43-.693.528-.01.026-.018.037-.032.044l-.983-.593-.75-.026s.266 1.836.241 2.063c-.01.22-.074 7.239.444 8.298l-2.537-.21s-3.764-4.017-.946-9.539c.35-.693.834-1.548-.459-2.133-.577-.258-1.847-.413-2.08-.665 0 0-.858-.312-.764.837l.608 1.349s-.108.794-.459 2.663c-.074.415-.484 2.813 1.556 6.17 0 0 .374.641.255.863-.112.23-.207.1-.207.1l-2.627-.268s-.6-.169-.723.458c-.09.444-.558 1.975.256 2.147 0 0 4.962-1.093 12.396.921 1.329.352 3.272.71 7.057.61 0 0 4.822-.685 4.822-3.591 0 0-1.02-.823-6.382 1.041z"/>
        <path id="m" d="M1.359 5.818c1.966-.055 2.925-1.007 2.925-1.007s.579-.503 1.198-1.117c.728-.732 1.522-1.6 1.522-1.6l.551-.323v-.252C6.654.583 5.09.192 5.09.192c-.036-.067-.275.055-.275.055-.487.972-1.972 2.367-2.357 2.694C.976 4.232.518 5.424.518 5.424s.32.407.84.394z"/>
        <path id="o" d="M12.72 1.468c.181-.37.02-.61.02-.61C11.08.174 9.785.194 9.785.194L9.21.377C5.03 6.64.392 8.695.392 8.695c-.164.207.32 1.407.32 1.407s.284.126.686.149c1.524.075 4.85-2.61 4.85-2.61.487-.037.699.725.699.725-.104.241-.195 5.754-.212 6.137-.028 1.274.5 2.123.978 2.123.47 0 1.35-.809 1.35-.809l-.078-4.46C8.918 11.1 8.407 6.2 8.407 6.2c3.255-2.808 4.131-4.36 4.313-4.732z"/>
        <path id="q" d="M.645 1.399c.437 1.278 1.072 1.933 1.072 1.933 2.748 1.19 6.28-1.24 6.455-1.38.179-.142.284-.933.284-.933-.105-.168-.92-.792-.92-.792L7.107.1C4.081.57.614.497.614.497l-.13.541s.025-.012.16.361z"/>
        <path id="s" d="M13.276.21S8.354 1.323 7.031 1.394c-.74.047-4.93.517-4.93.517S.3 2.104.188 3.784c-.031.438-.047 1.48.088 1.646 0 0 1.617-.46 3.667-.91.696-.15 1.695-.201 1.866-.187 0 0 .315 7.792.18 8.086 0 0 .095 1.147-1.23.715 0 0-1.353-.847-2.658-.812 0 0-.052.203.247.482.291.27 2.207 1.831 3.091 2.934.296.388 3.474 1.61 3.638-1.863.034-.594-.647-6.599-.696-6.97-.055-.369-.178-2.715.013-2.827 0 0 5.153-.691 6.157-1.832.335-.373-.04-1.44-1.275-2.036z"/>
        <path id="u" d="M14.264 17.966s-2.406.396-2.417.319c-.017-.077.277-.427.643-.711 1.049-.832 1.493-1.452 1.493-1.452.677-1.473-.133-1.414-.133-1.414-.68-.245-1.138.4-1.267.597-1.151 1.688-1.215 1.528-1.215 1.528-.189-.955-.056-3.007-.056-3.007l1.745-.982c.517-.173.628-1.265.28-1.49-.28-.182-1.952.04-1.952.04s-.22.111-.315.017c-.087-.098.037-.816.037-.816l1.476-.692c.386-.328.255-1.221.255-1.221-.29-.404-1.103-.534-1.103-.534l-2.117.041s-.557.157-.5-.164c.134-.725 1.638-2.114 1.638-2.114.795.021 1.857.839 2.047 1.017a19.11 19.11 0 0 0 1.677 1.35c.145-3.782-1.562-4.465-1.875-4.636-.322-.165-.3-.483-.3-.483.925-.644.846-.845.846-.845C12.198-.234 10.478.367 10.478.367c-.014.098-1.025 2.139-1.37 2.792-2.666 4.929-7.117 8.495-7.258 8.665-.15.174-1.716.943-1.716.943.795 1.962 2.637 1.647 3.005 1.565 1.175-.266 4.092-4.106 4.092-4.106.081.222.556.232.789.278.825.174 1.482.24 1.482.24l.079 1.08-1.725.506s-.776.213-.82 1.113c-.076 1.834 1.26 1.305 1.26 1.305l1.447-.45c.094.068.228 2.352.228 2.352l-1.61-.98a1.785 1.785 0 0 0-.934 1.393c.407 1.222 1.173 1.267 1.531 1.434.277.127.24.451.033.566-3.778 2.028-4.03 1.905-4.03 1.905l-.26.67c-.02 1.759 2.32 1.169 2.448 1.092 3.791-2.073 6.445-2.768 6.445-2.768.48.019.868-.937.868-.937l.35-.585c.29-.549-.548-.474-.548-.474z"/>
        <path id="w" d="M3.327 16.85c-.716.353-1.13.084-1.13.084s-.685-1.36-.448-3.593c0 0 .153-.08.289-.053 0 0 1.408.249 3.218 1.356 0 0 .173 1.21-1.93 2.206zM1.902 6.807l.183-.28 2.663-.117s.188.133.063.488c-.117.364-.475 1.759-1.555 1.717 0 0-1.436.286-1.464-.206l.11-1.602zm.485-3.785c.05-.379 2.317-.421 2.585-.341.262.073.316.88.316.88-.23 1.206-.423 1.076-.423 1.076-1.36.341-2.58.062-2.58.062-.126-.343.102-1.677.102-1.677zm6.861 11.423c-1.203-.436-2.583-1.396-2.583-1.396.058-.06 4.391-2.793 4.391-2.793C9.988 8.884 8.645 8.11 8.645 8.11c-2.344 4.052-5.69 4.328-6.238 4.355-.548.021-.635-.009-.652-.512-.058-1.739.23-1.772.23-1.772s.39-.02.69.284c.564.564 1.837.129 1.837.129l.854-.79C6.263 8.725 6.37 8.348 6.437 7.41c.158-2.244.54-3.099.784-3.792.612-1.79.547-2.203.547-2.203C7.656-.545 5.848.085 5.63.17c-1.405.56-3.16.789-3.702.96-1.45.473-1.255.775-1.255.775L.587 3.428s-.247 8.054-.26 8.64c-.216 6.223.218 9.293.218 9.293-.023.533.642.818.642.818 2.115-.139 3.825-4.259 3.96-4.74.69-2.466.843-2.2.843-2.2 1.651.71 3.63 3.221 3.752 3.334.125.11.317.055.478-.282.157-.337 1.236-1.792 1.236-1.792-.036-.47-1.497-1.797-2.208-2.054z"/>
        <path id="y" d="M1.386 1.088h1.65c.65 0 1.054.148 1.054.647 0 .475-.448.661-1.016.661H1.386V1.088zM.012 6.02h2.91c1.4 0 1.778-.207 2.17-.538.36-.305.594-.76.594-1.226 0-.588-.221-1.175-1.07-1.441.296-.134.857-.369.857-1.226C5.473.972 5.04.064 3.356.064H.012V6.02zM1.386 3.4h1.833c.51 0 1.028.196 1.028.72 0 .602-.403.873-1.1.873H1.387V3.4z"/>
        <path id="A" d="M2.062 4.794H4.59l.44 1.226h1.555L4.167.064H2.52L.07 6.02h1.508l.484-1.226zm1.255-3.381h.021l.854 2.358h-1.75l.875-2.358z"/>
        <path id="C" d="M4.417.064h1.367V6.02h-1.47L1.458 1.775H1.44V6.02H.068V.064h1.549L4.396 4.21h.02z"/>
        <path id="E" d="M1.735 6.02H.3V.064h1.434v2.42L4.358.064h1.854l-2.8 2.44L6.374 6.02H4.53L2.407 3.407l-.672.597z"/>
        <path id="G" d="M.182 3.182c0 2.726 2.541 3.058 3.512 3.058.957 0 3.502-.332 3.502-3.058C7.196.455 4.651.129 3.694.129 2.724.129.182.455.182 3.182zm1.53 0c0-1.627 1.154-2.025 1.982-2.025.817 0 1.97.398 1.97 2.025 0 1.629-1.153 2.03-1.97 2.03-.828 0-1.982-.401-1.982-2.03z"/>
        <path id="I" d="M1.67 6.02H.161V.064h5.14v1.051H1.67V2.46h3.189v1.047H1.669z"/>
        <path id="K" d="M4.852 2.18c-.11-.345-.339-1.007-1.522-1.007-.685 0-1.7.392-1.7 2.032 0 1.046.481 1.987 1.7 1.987.796 0 1.346-.38 1.522-1.092h1.43c-.288 1.257-1.258 2.14-2.978 2.14C1.478 6.24.167 5.2.167 3.19.167 1.16 1.55.129 3.318.129c2.065 0 2.888 1.196 2.965 2.053h-1.43z"/>
        <path id="M" d="M.241 3.182c0 2.726 2.553 3.058 3.514 3.058.96 0 3.512-.332 3.512-3.058C7.267.455 4.715.129 3.755.129 2.794.129.24.455.24 3.182zm1.54 0c0-1.627 1.154-2.025 1.974-2.025.83 0 1.977.398 1.977 2.025 0 1.629-1.148 2.03-1.977 2.03-.82 0-1.974-.401-1.974-2.03z"/>
        <path id="O" d="M7.43 6.018H6.004V1.034h-.02L4.618 6.018H3.127L1.794 1.034h-.017v4.984H.355V.064h2.222l1.325 4.69h.011L5.218.065H7.43z"/>
        <path id="Q" d="M7.232 6.018H5.806V1.034h-.024L4.43 6.018H2.928L1.602 1.034h-.026v4.984H.15V.064h2.222l1.336 4.69h.016L5.017.065h2.215z"/>
        <path id="S" d="M5.845 3.937c0 1.567-1.115 2.231-2.885 2.231-.653 0-1.612-.13-2.232-.725-.39-.352-.536-.834-.553-1.426V.064h1.494v3.86c0 .827.566 1.192 1.259 1.192 1.005 0 1.42-.41 1.42-1.132V.064h1.497v3.873z"/>
        <path id="U" d="M4.664.064H6V6.02H4.566L1.778 1.775h-.026V6.02H.412V.064h1.522l2.71 4.146h.02z"/>
        <path id="W" d="M.089.064h1.567V6.02H.089z"/>
        <path id="Y" d="M4.948 2.18c-.122-.345-.337-1.007-1.525-1.007-.686 0-1.704.392-1.704 2.032 0 1.046.49 1.987 1.704 1.987.797 0 1.347-.38 1.525-1.092h1.433C6.093 5.357 5.118 6.24 3.4 6.24 1.57 6.24.264 5.2.264 3.19c0-2.03 1.372-3.062 3.15-3.062 2.06 0 2.89 1.196 2.967 2.053H4.948z"/>
        <path id="aa" d="M2.427 4.794h2.698l.473 1.226h1.65L4.679.064H2.921L.318 6.02h1.603l.506-1.226zm1.352-3.381h.02l.903 2.358h-1.86l.937-2.358z"/>
        <path id="ac" d="M4.112 6.02H2.674V1.115H.595V.065h5.596v1.05H4.112z"/>
        <path id="ae" d="M.31.064h1.572V6.02H.31z"/>
        <path id="ag" d="M.12 3.182C.12 5.908 2.67 6.24 3.635 6.24c.957 0 3.504-.332 3.504-3.058C7.14.455 4.592.129 3.635.129 2.671.129.12.455.12 3.182zm1.534 0c0-1.627 1.15-2.025 1.981-2.025.83 0 1.98.398 1.98 2.025 0 1.629-1.15 2.03-1.98 2.03-.83 0-1.98-.401-1.98-2.03z"/>
        <path id="ai" d="M4.352.064h1.371V6.02H4.258L1.405 1.775h-.023V6.02H.01V.064h1.543L4.331 4.21h.02z"/>
        <path id="ak" d="M1.607 4.297c.01.332.203.945 1.486.945.696 0 1.464-.137 1.464-.754 0-.458-.527-.575-1.267-.722l-.753-.146C1.403 3.405.307 3.19.307 1.908.308 1.267.724.128 3 .128c2.153 0 2.726 1.161 2.74 1.875H4.334c-.032-.258-.155-.873-1.436-.873-.558 0-1.208.169-1.208.69 0 .459.44.553.732.61l1.71.345c.952.195 1.828.52 1.828 1.567 0 1.742-2.143 1.898-2.763 1.898C.636 6.24.203 5.023.203 4.297h1.404z"/>
    </defs>
    <g fill="none" fill-rule="evenodd">
        <g transform="translate(193.064 5.557)">
            <mask id="b" fill="#fff">
                <use xlink:href="#a"/>
            </mask>
            <path fill="#B10F1F" d="M-4.496 33.446h38V-4.942h-38z" mask="url(#b)"/>
        </g>
        <g transform="translate(0 23.462)">
            <mask id="d" fill="#fff">
                <use xlink:href="#c"/>
            </mask>
            <path fill="#003B78" d="M-6.45 6.902h12.9v-12.26h-12.9z" mask="url(#d)"/>
        </g>
        <g>
            <mask id="f" fill="#fff">
                <use xlink:href="#e"/>
            </mask>
            <path fill="#003B78" d="M-5.04 39.685h41.284V-5.11H-5.04z" mask="url(#f)"/>
        </g>
        <g transform="translate(47.962 .617)">
            <mask id="h" fill="#fff">
                <use xlink:href="#g"/>
            </mask>
            <path fill="#003B78" d="M-4.925 29h33.323V-5.043H-4.925z" mask="url(#h)"/>
        </g>
        <g transform="translate(84.997 3.087)">
            <mask id="j" fill="#fff">
                <use xlink:href="#i"/>
            </mask>
            <path fill="#003B78" d="M-4.588 9.852h14.43V-4.682h-14.43z" mask="url(#j)"/>
        </g>
        <g transform="translate(81.961 1.852)">
            <mask id="l" fill="#fff">
                <use xlink:href="#k"/>
            </mask>
            <path fill="#003B78" d="M-4.502 27.8h34.924V-5.113H-4.502z" mask="url(#l)"/>
        </g>
        <g transform="translate(154.815 1.852)">
            <mask id="n" fill="#fff">
                <use xlink:href="#m"/>
            </mask>
            <path fill="#003B78" d="M-4.523 10.747h17.119V-4.757H-4.523z" mask="url(#n)"/>
        </g>
        <g transform="translate(149.351 6.792)">
            <mask id="p" fill="#fff">
                <use xlink:href="#o"/>
            </mask>
            <path fill="#003B78" d="M-4.66 21.696h22.484V-4.877H-4.659z" mask="url(#p)"/>
        </g>
        <g transform="translate(162.708 4.322)">
            <mask id="r" fill="#fff">
                <use xlink:href="#q"/>
            </mask>
            <path fill="#003B78" d="M-4.363 8.39h17.665V-4.632H-4.363z" mask="url(#r)"/>
        </g>
        <g transform="translate(160.886 8.026)">
            <mask id="t" fill="#fff">
                <use xlink:href="#s"/>
            </mask>
            <path fill="#003B78" d="M-4.935 21.335h24.704V-4.86H-4.935z" mask="url(#t)"/>
        </g>
        <g transform="translate(113.531 1.235)">
            <mask id="v" fill="#fff">
                <use xlink:href="#u"/>
            </mask>
            <path fill="#003B78" d="M-4.914 28.053h24.836V-4.862H-4.914z" mask="url(#v)"/>
        </g>
        <g transform="translate(129.316 2.47)">
            <mask id="x" fill="#fff">
                <use xlink:href="#w"/>
            </mask>
            <path fill="#003B78" d="M-4.58 27.35h20.882V-5.165H-4.58z" mask="url(#x)"/>
        </g>
        <g transform="translate(37.641 27.784)">
            <mask id="z" fill="#fff">
                <use xlink:href="#y"/>
            </mask>
            <path fill="#003B78" d="M-4.726 10.949h15.15V-4.865h-15.15z" mask="url(#z)"/>
        </g>
        <g transform="translate(44.927 27.784)">
            <mask id="B" fill="#fff">
                <use xlink:href="#A"/>
            </mask>
            <path fill="#003B78" d="M-4.669 10.95h15.993V-4.865H-4.669z" mask="url(#B)"/>
        </g>
        <g transform="translate(52.212 27.784)">
            <mask id="D" fill="#fff">
                <use xlink:href="#C"/>
            </mask>
            <path fill="#003B78" d="M-4.78 10.949h15.41V-4.865H-4.78z" mask="url(#D)"/>
        </g>
        <g transform="translate(59.498 27.784)">
            <mask id="F" fill="#fff">
                <use xlink:href="#E"/>
            </mask>
            <path fill="#003B78" d="M-4.437 10.949h15.55V-4.865h-15.55z" mask="url(#F)"/>
        </g>
        <g transform="translate(72.854 27.784)">
            <mask id="H" fill="#fff">
                <use xlink:href="#G"/>
            </mask>
            <path fill="#003B78" d="M-4.859 11.06h17.095V-4.69H-4.859z" mask="url(#H)"/>
        </g>
        <g transform="translate(80.747 27.784)">
            <mask id="J" fill="#fff">
                <use xlink:href="#I"/>
            </mask>
            <path fill="#003B78" d="M-4.823 10.949h15.11V-4.865h-15.11z" mask="url(#J)"/>
        </g>
        <g transform="translate(91.675 27.784)">
            <mask id="L" fill="#fff">
                <use xlink:href="#K"/>
            </mask>
            <path fill="#003B78" d="M-4.572 11.06h15.594V-4.691H-4.572z" mask="url(#L)"/>
        </g>
        <g transform="translate(98.96 27.784)">
            <mask id="N" fill="#fff">
                <use xlink:href="#M"/>
            </mask>
            <path fill="#003B78" d="M-4.8 11.06h17.107V-4.69H-4.799z" mask="url(#N)"/>
        </g>
        <g transform="translate(106.853 27.784)">
            <mask id="P" fill="#fff">
                <use xlink:href="#O"/>
            </mask>
            <path fill="#003B78" d="M-4.686 10.947h17.157V-4.864H-4.686z" mask="url(#P)"/>
        </g>
        <g transform="translate(115.96 27.784)">
            <mask id="R" fill="#fff">
                <use xlink:href="#Q"/>
            </mask>
            <path fill="#003B78" d="M-4.89 10.947h17.162V-4.864H-4.89z" mask="url(#R)"/>
        </g>
        <g transform="translate(123.852 27.784)">
            <mask id="T" fill="#fff">
                <use xlink:href="#S"/>
            </mask>
            <path fill="#003B78" d="M-4.672 11.097h15.364V-4.864H-4.672z" mask="url(#T)"/>
        </g>
        <g transform="translate(131.745 27.784)">
            <mask id="V" fill="#fff">
                <use xlink:href="#U"/>
            </mask>
            <path fill="#003B78" d="M-4.327 10.949h15.065V-4.865H-4.327z" mask="url(#V)"/>
        </g>
        <g transform="translate(139.03 27.784)">
            <mask id="X" fill="#fff">
                <use xlink:href="#W"/>
            </mask>
            <path fill="#003B78" d="M-5.081 10.95H6.826V-4.865H-5.081z" mask="url(#X)"/>
        </g>
        <g transform="translate(141.459 27.784)">
            <mask id="Z" fill="#fff">
                <use xlink:href="#Y"/>
            </mask>
            <path fill="#003B78" d="M-4.474 11.06H11.12V-4.691H-4.474z" mask="url(#Z)"/>
        </g>
        <g transform="translate(148.137 27.784)">
            <mask id="ab" fill="#fff">
                <use xlink:href="#aa"/>
            </mask>
            <path fill="#003B78" d="M-4.722 10.95h17.01V-4.865h-17.01z" mask="url(#ab)"/>
        </g>
        <g transform="translate(154.815 27.784)">
            <mask id="ad" fill="#fff">
                <use xlink:href="#ac"/>
            </mask>
            <path fill="#003B78" d="M-4.144 10.949H10.93V-4.865H-4.144z" mask="url(#ad)"/>
        </g>
        <g transform="translate(161.493 27.784)">
            <mask id="af" fill="#fff">
                <use xlink:href="#ae"/>
            </mask>
            <path fill="#003B78" d="M-4.86 10.95H7.051V-4.865h-11.91z" mask="url(#af)"/>
        </g>
        <g transform="translate(164.529 27.784)">
            <mask id="ah" fill="#fff">
                <use xlink:href="#ag"/>
            </mask>
            <path fill="#003B78" d="M-4.92 11.06h17.1V-4.69h-17.1z" mask="url(#ah)"/>
        </g>
        <g transform="translate(172.422 27.784)">
            <mask id="aj" fill="#fff">
                <use xlink:href="#ai"/>
            </mask>
            <path fill="#003B78" d="M-4.836 10.949H10.57V-4.865H-4.836z" mask="url(#aj)"/>
        </g>
        <g transform="translate(179.1 27.784)">
            <mask id="al" fill="#fff">
                <use xlink:href="#ak"/>
            </mask>
            <path fill="#003B78" d="M-4.644 11.06h15.45V-4.692h-15.45z" mask="url(#al)"/>
        </g>
    </g>
</svg>
